<svg xmlns="http://www.w3.org/2000/svg" width="15.372" height="20.994" viewBox="0 0 15.372 20.994">
  <g id="bag" transform="translate(-68.557)">
    <g id="Group_44" data-name="Group 44" transform="translate(68.557)">
      <path id="Path_59" data-name="Path 59" d="M83.918,18.132,82.8,5.846a.657.657,0,0,0-.655-.6H80.179V3.936a3.936,3.936,0,0,0-7.873,0V5.249H70.338a.655.655,0,0,0-.653.6L68.568,18.132a2.624,2.624,0,0,0,2.614,2.862H81.3a2.624,2.624,0,0,0,2.614-2.862Zm-10.3-14.2a2.624,2.624,0,1,1,5.249,0V5.249H73.618Zm8.655,15.319a1.3,1.3,0,0,1-.97.426H71.181a1.312,1.312,0,0,1-1.306-1.432l1.062-11.69h1.369V8.529a.656.656,0,0,0,1.312,0V6.561h5.249V8.529a.656.656,0,0,0,1.312,0V6.561h1.369L82.61,18.252A1.3,1.3,0,0,1,82.273,19.256Z" transform="translate(-68.557)" fill="#fff"/>
    </g>
  </g>
</svg>
